<svg viewBox="0 0 24 24" xmlns="http://www.w3.org/2000/svg"><path d="M12 0c6.627417 0 12 5.372583 12 12s-5.372583 12-12 12S0 18.627417 0 12 5.372583 0 12 0zm0 4.5c-1.81125 0-3.28125 1.47-3.28125 3.28125v1.3125H8.0625c-.721875 0-1.3125.590625-1.3125 1.3125v6.5625c0 .721875.590625 1.3125 1.3125 1.3125h7.875c.721875 0 1.3125-.590625 1.3125-1.3125v-6.5625c0-.721875-.590625-1.3125-1.3125-1.3125h-.65625v-1.3125C15.28125 5.97 13.81125 4.5 12 4.5zm0 7.875c.721875 0 1.3125.590625 1.3125 1.3125S12.721875 15 12 15s-1.3125-.590625-1.3125-1.3125S11.278125 12.375 12 12.375zm0-6.628125c1.122188 0 2.034375.912187 2.034375 2.034375v1.3125h-4.06875v-1.3125c0-1.122187.912187-2.034375 2.034375-2.034375z" fill="#FAFAFA" fill-rule="evenodd"></path></svg>