<?xml version="1.0" encoding="iso-8859-1"?>
<!-- Generator: Adobe Illustrator 18.0.0, SVG Export Plug-In . SVG Version: 6.00 Build 0)  -->
<!DOCTYPE svg PUBLIC "-//W3C//DTD SVG 1.1//EN" "http://www.w3.org/Graphics/SVG/1.1/DTD/svg11.dtd">
<svg fill="#EEC665" version="1.1" id="Capa_1" xmlns="http://www.w3.org/2000/svg" xmlns:xlink="http://www.w3.org/1999/xlink" x="0px" y="0px"
	 viewBox="0 0 296.5 296.5" style="enable-background:new 0 0 296.5 296.5;" xml:space="preserve">
<g>
	<path d="M220.936,85.334c-1.398-2.039-3.712-3.259-6.185-3.259H82.75c-2.474,0-4.787,1.219-6.186,3.259l-30.952,45.148
		c-1.89,2.756-1.729,6.428,0.395,9.007l96.953,117.805c1.425,1.731,3.549,2.734,5.791,2.734c2.242,0,4.366-1.003,5.791-2.734
		l96.95-117.805c2.123-2.579,2.284-6.251,0.395-9.006L220.936,85.334z M141.251,120.506l-34.254-23.431h34.254V120.506z
		 M156.251,97.075h34.251l-34.251,23.43V97.075z M141.251,231.611l-73.567-89.389h73.567V231.611z M156.251,142.223h73.564
		l-73.564,89.389V142.223z M231.467,127.223h-58.469l39.804-27.228L231.467,127.223z M84.699,99.995l39.803,27.228H66.033
		L84.699,99.995z"/>
	
</g>
<g>
</g>
<g>
</g>
<g>
</g>
<g>
</g>
<g>
</g>
<g>
</g>
<g>
</g>
<g>
</g>
<g>
</g>
<g>
</g>
<g>
</g>
<g>
</g>
<g>
</g>
<g>
</g>
<g>
</g>
</svg>
